<svg width="24" height="24" viewBox="0 0 24 24" fill="none" xmlns="http://www.w3.org/2000/svg">
<path d="M15.283 6.18164L21.601 6.18164" stroke="white" stroke-width="1.4" stroke-linecap="round" stroke-linejoin="round"/>
<path d="M2.40033 6.17987H5.69183" stroke="white" stroke-width="1.4" stroke-linecap="round" stroke-linejoin="round"/>
<path d="M18.0017 17.82L21.5997 17.82" stroke="white" stroke-width="1.4" stroke-linecap="round" stroke-linejoin="round"/>
<path d="M2.40033 17.8202H8.58856" stroke="white" stroke-width="1.4" stroke-linecap="round" stroke-linejoin="round"/>
<path d="M9.13704 9.04287C10.7182 9.04287 12 7.76103 12 6.17988C12 4.5987 10.7182 3.31689 9.13704 3.31689C7.55585 3.31689 6.27405 4.5987 6.27405 6.17988C6.27405 7.76103 7.55585 9.04287 9.13704 9.04287Z" stroke="white" stroke-width="1.4" stroke-linecap="round" stroke-linejoin="round"/>
<path d="M15.1387 20.683C16.7199 20.683 18.0017 19.4012 18.0017 17.82C18.0017 16.2389 16.7199 14.957 15.1387 14.957C13.5576 14.957 12.2758 16.2389 12.2758 17.82C12.2758 19.4012 13.5576 20.683 15.1387 20.683Z" stroke="white" stroke-width="1.4" stroke-linecap="round" stroke-linejoin="round"/>
</svg>
