<svg width="24" height="24" viewBox="0 0 24 24" fill="none" xmlns="http://www.w3.org/2000/svg">
<path d="M2.01221 13.4605C2.01221 9.57358 2.01221 7.63004 3.13173 6.4225C4.25126 5.21497 6.05309 5.21497 9.65678 5.21497H13.4791C17.0827 5.21497 18.8846 5.21497 20.0041 6.4225C21.1236 7.63004 21.1236 9.57358 21.1236 13.4605C21.1236 17.3475 21.1236 19.2911 20.0041 20.4986C18.8846 21.7061 17.0827 21.7061 13.4791 21.7061H9.65678C6.05309 21.7061 4.25126 21.7061 3.13173 20.4986C2.01221 19.2911 2.01221 17.3475 2.01221 13.4605Z" stroke="white" stroke-width="1.4"/>
<path d="M15.3956 5.59771C15.3956 4.03978 15.3956 3.26082 14.8358 2.77684C14.276 2.29285 13.3751 2.29285 11.5733 2.29285C9.77144 2.29285 8.8705 2.29285 8.31074 2.77684C7.75098 3.26082 7.75098 4.03978 7.75098 5.59771" stroke="white" stroke-width="1.4"/>
<path d="M11.5702 17.1947C12.7883 17.1947 13.7757 16.3588 13.7757 15.3278C13.7757 14.2966 12.7883 13.4607 11.5702 13.4607C10.3521 13.4607 9.36462 12.6248 9.36462 11.5936C9.36462 10.5626 10.3521 9.72665 11.5702 9.72665M11.5702 17.1947C10.3521 17.1947 9.36462 16.3588 9.36462 15.3278M11.5702 17.1947V17.9416M11.5702 9.72665V8.9798M11.5702 9.72665C12.7883 9.72665 13.7757 10.5626 13.7757 11.5936" stroke="white" stroke-width="1.4" stroke-linecap="round"/>
</svg>
