<svg width="24" height="24" viewBox="0 0 24 24" fill="none" xmlns="http://www.w3.org/2000/svg">
<path d="M8.9718 21.9988H14.9718C19.9718 21.9988 21.9718 19.9988 21.9718 14.9988V8.99884C21.9718 3.99884 19.9718 1.99884 14.9718 1.99884H8.9718C3.9718 1.99884 1.9718 3.99884 1.9718 8.99884V14.9988C1.9718 19.9988 3.9718 21.9988 8.9718 21.9988Z" stroke="white" stroke-width="1.4" stroke-linecap="round" stroke-linejoin="round"/>
<path d="M1.9718 11.1996L7.9718 11.1796C8.7218 11.1796 9.5618 11.7496 9.8418 12.4496L10.9818 15.3296C11.2418 15.9796 11.6518 15.9796 11.9118 15.3296L14.2018 9.51956C14.4218 8.95956 14.8318 8.93956 15.1118 9.46956L16.1518 11.4396C16.4618 12.0296 17.2618 12.5096 17.9218 12.5096H21.9818" stroke="white" stroke-width="1.4" stroke-linecap="round" stroke-linejoin="round"/>
</svg>
