<svg width="24" height="24" viewBox="0 0 24 24" fill="none" xmlns="http://www.w3.org/2000/svg">
<path d="M13.0089 6.99927L15.0094 8.99927L20.0105 3.99927" stroke="white" stroke-width="1.4" stroke-linecap="round" stroke-linejoin="round"/>
<path d="M1.99792 12.4995L3.74992 10.9669C4.66141 10.1696 6.03515 10.2153 6.89156 11.0715L11.1823 15.3612C11.8696 16.0485 12.9517 16.1422 13.7471 15.5833L14.0453 15.3738C15.1898 14.5696 16.7383 14.6628 17.7781 15.5984L21.0024 18.4995" stroke="white" stroke-width="1.4" stroke-linecap="round"/>
<path d="M22.0026 11.9987C22.0026 16.7127 22.0026 19.0698 20.5378 20.5342C19.073 21.9987 16.7154 21.9987 12.0003 21.9987C7.28511 21.9987 4.92754 21.9987 3.46274 20.5342C1.99792 19.0698 1.99792 16.7127 1.99792 11.9987C1.99792 10.8704 1.99792 9.87707 2.01801 8.99872C2.01801 8.99872 2.06234 7.77228 2.15844 6.81153C2.30821 5.31413 2.52201 4.99872 2.52201 4.99872C2.73616 4.38793 3.03782 3.88801 3.46274 3.46319C4.92754 1.99872 7.28511 1.99872 12.0003 1.99872" stroke="white" stroke-width="1.4" stroke-linecap="round"/>
</svg>
