<svg width="24" height="24" viewBox="0 0 24 24" fill="none" xmlns="http://www.w3.org/2000/svg">
<g opacity="0.8">
<path fill-rule="evenodd" clip-rule="evenodd" d="M8.29192 2.62014C9.40301 2.17166 10.6176 1.9248 11.8894 1.9248C16.3179 1.9248 20.052 4.92221 21.1708 8.99702C20.8652 9.08508 20.564 9.62402 20.2348 9.62402C18.1026 9.62354 9.31639 2.45172 8.29192 2.62014Z" fill="url(#paint0_linear_3040_3747)"/>
<path fill-rule="evenodd" clip-rule="evenodd" d="M4.64249 5.2167C5.63039 4.08732 6.87863 3.19133 8.29192 2.62014C9.31639 2.4522 10.3721 2.40601 11.4082 2.40601C16.1061 2.40601 18.1026 9.14282 20.2348 9.14282C20.564 9.14282 20.8657 9.08508 21.1708 8.99702C21.3541 9.66493 21.4677 10.3612 21.5023 11.0777C20.8051 11.6778 19.9683 12.5112 19.1074 12.5112C14.8964 12.5107 5.81854 4.38134 4.64249 5.2167Z" fill="url(#paint1_linear_3040_3747)"/>
<path fill-rule="evenodd" clip-rule="evenodd" d="M2.28075 10.9873C2.40778 8.78385 3.27731 6.7782 4.64248 5.2167C5.81854 4.38134 7.14473 3.84961 8.52096 3.84961C14.3796 3.84961 14.8964 12.03 19.1074 12.03C19.9683 12.03 20.8051 11.6778 21.5023 11.0777C21.51 11.2341 21.5139 11.391 21.5139 11.5488C21.5139 12.1282 21.4624 12.696 21.3637 13.247C20.4615 14.7546 19.4235 16.3608 17.6638 16.3608C12.6785 16.3604 2.863 8.85843 2.28075 10.9873Z" fill="url(#paint2_linear_3040_3747)"/>
<path fill-rule="evenodd" clip-rule="evenodd" d="M3.0372 15.3316C2.53964 14.17 2.26439 12.8914 2.26439 11.5484C2.26439 11.3602 2.26968 11.173 2.28027 10.9868C2.863 8.85798 4.30468 7.21756 6.11448 7.21756C10.9818 7.21756 12.6781 15.8792 17.6633 15.8792C19.4231 15.8792 20.4615 14.7546 21.3633 13.2465C21.1015 14.7171 20.5043 16.0721 19.6555 17.2309C17.9751 18.6163 16.8125 19.2476 15.2573 19.2476C10.0488 19.2476 3.16857 13.8495 3.0372 15.3316Z" fill="url(#paint3_linear_3040_3747)"/>
<path fill-rule="evenodd" clip-rule="evenodd" d="M3.0372 15.3316C3.16857 13.8495 3.68009 12.5112 5.39894 12.5112C8.91892 12.5112 10.0488 18.7668 15.2578 18.7668C16.813 18.7668 17.9756 18.6167 19.656 17.2313C17.9044 19.6205 15.0769 21.1729 11.8894 21.1729C7.91899 21.1724 4.50823 18.7654 3.0372 15.3316Z" fill="url(#paint4_linear_3040_3747)"/>
</g>
<defs>
<linearGradient id="paint0_linear_3040_3747" x1="-7.43663" y1="-17.2472" x2="17.8269" y2="8.01681" gradientUnits="userSpaceOnUse">
<stop stop-color="white"/>
<stop offset="1" stop-color="#8DD4F1"/>
</linearGradient>
<linearGradient id="paint1_linear_3040_3747" x1="-9.44179" y1="-15.242" x2="15.8218" y2="10.022" gradientUnits="userSpaceOnUse">
<stop stop-color="white"/>
<stop offset="1" stop-color="#53BDE9"/>
</linearGradient>
<linearGradient id="paint2_linear_3040_3747" x1="-11.9123" y1="-12.7716" x2="13.3517" y2="12.4925" gradientUnits="userSpaceOnUse">
<stop stop-color="white"/>
<stop offset="1" stop-color="#1DA6E4"/>
</linearGradient>
<linearGradient id="paint3_linear_3040_3747" x1="-13.3862" y1="-11.2976" x2="11.8778" y2="13.9664" gradientUnits="userSpaceOnUse">
<stop stop-color="white"/>
<stop offset="1" stop-color="#4E82CF"/>
</linearGradient>
<linearGradient id="paint4_linear_3040_3747" x1="-15.0526" y1="-9.63124" x2="10.2109" y2="15.6328" gradientUnits="userSpaceOnUse">
<stop stop-color="white"/>
<stop offset="1" stop-color="#1359BF"/>
</linearGradient>
</defs>
</svg>
