<svg width="24" height="24" viewBox="0 0 24 24" fill="none" xmlns="http://www.w3.org/2000/svg">
<path d="M17.6099 8.26142C17.6099 11.3577 15.0998 13.8678 12.0036 13.8678C8.90726 13.8678 6.39722 11.3577 6.39722 8.26142C6.39722 5.16513 8.90726 2.65509 12.0036 2.65509C15.0998 2.65509 17.6099 5.16513 17.6099 8.26142Z" stroke="white" stroke-width="1.4"/>
<path d="M6.85972 10.3063C4.44167 10.9286 2.65497 13.1237 2.65497 15.736C2.65497 18.8323 5.16501 21.3423 8.2613 21.3423C11.3576 21.3423 13.8676 18.8323 13.8676 15.736C13.8676 15.0308 13.7375 14.3561 13.4998 13.7344" stroke="white" stroke-width="1.4"/>
<path d="M12.0002 19.915C12.9921 20.8027 14.3019 21.3425 15.7378 21.3425C18.8341 21.3425 21.3441 18.8324 21.3441 15.7362C21.3441 13.1239 19.5574 10.9288 17.1394 10.3065" stroke="white" stroke-width="1.4"/>
</svg>
