<svg width="24" height="24" viewBox="0 0 24 24" fill="none" xmlns="http://www.w3.org/2000/svg">
<g opacity="0.8">
<path d="M6.77894 9.75699C7.54427 7.49059 9.72365 5.86287 12.3051 5.86287C13.6927 5.86287 14.9461 6.34408 15.9309 7.13151L18.7957 4.33176C17.0499 2.84439 14.8118 1.92572 12.3051 1.92572C8.42343 1.92572 5.08146 4.08979 3.47482 7.25912L6.77894 9.75699Z" fill="#EA4335"/>
<path d="M15.6232 16.3698C14.7288 16.9341 13.5924 17.2346 12.3071 17.2346C9.73561 17.2346 7.56304 15.6193 6.78987 13.3665L3.47482 15.8263C5.07947 19.0012 8.42134 21.1717 12.3071 21.1717C14.714 21.1717 17.0139 20.3355 18.7363 18.7654L15.6232 16.3698Z" fill="#34A853"/>
<path d="M18.7348 18.7664C20.5361 17.1243 21.7058 14.6795 21.7058 11.5487C21.7058 10.98 21.6163 10.3675 21.482 9.79883H12.3056V13.5172H17.5876C17.327 14.7676 16.6274 15.7361 15.6216 16.3708L18.7348 18.7664Z" fill="#4A90E2"/>
<path d="M6.79035 13.368C6.5945 12.7974 6.48844 12.1858 6.48844 11.5492C6.48844 10.9222 6.5913 10.3195 6.7815 9.75629L3.47738 7.25842C2.81806 8.54999 2.45978 10.0056 2.45978 11.5492C2.45978 13.0887 2.82479 14.5408 3.47531 15.8279L6.79035 13.368Z" fill="#FBBC05"/>
</g>
</svg>
