<svg width="24" height="24" viewBox="0 0 24 24" fill="none" xmlns="http://www.w3.org/2000/svg">
<path d="M2.20538 13.1888L3.89112 11.7142C4.76813 10.9471 6.08991 10.991 6.91393 11.8149L11.0424 15.9423C11.7037 16.6036 12.7448 16.6938 13.5101 16.156L13.7971 15.9544C14.8983 15.1806 16.3882 15.2703 17.3887 16.1705L20.491 18.9619" stroke="#24E5FF" stroke-width="1.57412" stroke-linecap="round"/>
<path d="M10.2499 1.92587C6.74551 1.9447 4.85017 2.09721 3.61479 3.3323C3.20594 3.74105 2.91569 4.22206 2.70964 4.80975C2.70964 4.80975 2.50394 5.11324 2.35983 6.554C2.26736 7.47841 2.22471 8.65847 2.22471 8.65847C2.20538 9.50359 2.20538 10.4594 2.20538 11.545C2.20538 16.0807 2.20538 18.3487 3.61479 19.7577C5.02419 21.1668 7.29259 21.1668 11.8294 21.1668C16.3662 21.1668 18.6347 21.1668 20.044 19.7577C21.2458 18.5562 21.4229 16.7302 21.4489 13.4061" stroke="#24E5FF" stroke-width="1.57412" stroke-linecap="round"/>
<path d="M15.9459 4.30116C15.3976 3.75264 15.0223 2.79476 14.836 1.92322C14.6495 2.79494 14.2746 3.75301 13.7261 4.30154C13.1777 4.84969 12.2196 5.225 11.3482 5.41164C12.2199 5.59789 13.1779 5.97298 13.7262 6.52153C14.2746 7.06986 14.6499 8.02793 14.8364 8.89948C15.0227 8.02776 15.3979 7.06968 15.9461 6.52115C16.4944 5.97282 17.4526 5.59769 18.324 5.41106C17.4525 5.2248 16.4945 4.84952 15.9459 4.30116Z" fill="#24E5FF"/>
<path d="M19.5076 8.69312C19.1803 8.36566 18.9557 7.7931 18.8445 7.27249C18.733 7.7931 18.5092 8.36563 18.1815 8.6933C17.8539 9.0206 17.2814 9.24499 16.7609 9.35645C17.2816 9.4679 17.8539 9.69192 18.1815 10.0196C18.5092 10.3471 18.7334 10.9196 18.8449 11.4402C18.9561 10.9194 19.1803 10.3471 19.5078 10.0194C19.8353 9.69192 20.4078 9.4677 20.9282 9.35608C20.4078 9.24481 19.8353 9.0206 19.5076 8.69312Z" fill="#24E5FF"/>
<path d="M13.6992 9.81348C13.6056 10.2505 13.4177 10.7314 13.1426 11.0064C12.8677 11.2812 12.387 11.4695 11.95 11.5631C12.387 11.6569 12.8677 11.8446 13.1426 12.1198C13.4177 12.3948 13.606 12.8752 13.6996 13.3125C13.7931 12.8752 13.9811 12.3948 14.2562 12.1196C14.531 11.8446 15.0117 11.6565 15.4486 11.5627C15.0117 11.4693 14.531 11.2812 14.256 11.0062C13.9811 10.7314 13.7927 10.2506 13.6992 9.81348Z" fill="#24E5FF"/>
</svg>
