<svg width="24" height="24" viewBox="0 0 24 24" fill="none" xmlns="http://www.w3.org/2000/svg">
<g clip-path="url(#clip0_3073_5900)">
<path d="M22.567 12.012C21.738 11.4615 20.8098 11.1025 19.8591 10.9605C19.8753 9.35993 19.5195 7.79196 18.8206 6.39806C18.7403 6.23845 18.5922 6.13985 18.4321 6.13985C17.402 6.14138 16.3688 6.3836 15.4182 6.84431C15.3872 6.78029 15.3563 6.71622 15.324 6.65272C14.6008 5.24071 13.5676 4.06059 12.3357 3.23994C12.1971 3.14748 12.0257 3.14748 11.8866 3.23994C10.6543 4.05906 9.62018 5.23917 8.89655 6.65219C8.86426 6.71521 8.8333 6.77976 8.80235 6.84379C7.85263 6.3836 6.82034 6.14138 5.79027 6.13985C5.6301 6.13985 5.48161 6.2385 5.4013 6.39806C4.70191 7.79201 4.34656 9.35998 4.36271 10.9605C3.41208 11.1025 2.48389 11.4614 1.65483 12.012C1.51581 12.1039 1.43011 12.2749 1.43011 12.4593C1.43057 15.4403 2.82355 18.2173 5.06531 19.7073C6.18642 20.4525 7.443 20.8249 8.70004 20.8249C9.87364 20.8249 11.0477 20.4995 12.1109 19.8498C13.1742 20.4995 14.3478 20.8249 15.5218 20.8249C16.7784 20.8249 18.0355 20.452 19.1566 19.7073C21.3983 18.2173 22.7913 15.4402 22.7918 12.4593C22.7918 12.2749 22.7061 12.1039 22.567 12.012ZM5.40138 18.9834C3.51221 17.7279 2.37308 15.1084 2.28246 12.6113C2.93387 12.2198 3.7529 11.9631 4.48103 11.8474C4.60978 13.0172 4.88094 14.2792 5.40138 15.3169C6.09359 16.6968 7.0927 17.8387 8.29142 18.6186C8.9379 19.0395 9.81724 19.5146 10.5364 19.7073C8.92443 20.203 6.87959 19.9658 5.40138 18.9834ZM6.17833 14.8004C5.64896 13.7442 5.34476 12.5972 5.27525 11.3912C5.18956 9.92395 5.47079 8.31704 6.06474 7.02174C6.87135 7.05892 7.6845 7.28285 8.43099 7.6366C8.00388 8.8012 7.75746 10.1966 7.75746 11.4733C7.75746 13.1719 8.15136 14.839 8.89651 16.2944C9.32003 17.1213 10.5562 18.5656 11.1699 19.207C9.38664 18.6958 7.11732 16.6725 6.17833 14.8004ZM12.1109 19.207C11.1109 18.486 10.2703 16.9427 9.66954 15.7697C9.00557 14.4734 8.65473 12.9876 8.65473 11.4733C8.65473 9.95902 9.00557 8.47318 9.66954 7.17635C10.2703 6.00349 11.1109 4.89205 12.1109 4.17106C13.1105 4.89306 13.9508 6.00507 14.551 7.17741C15.215 8.47371 15.5658 9.95959 15.5658 11.4733C15.5658 12.9871 15.215 14.4724 14.551 15.7693C13.9508 16.9416 13.1105 18.485 12.1109 19.207ZM15.324 16.2935C16.0691 14.8381 16.463 13.1715 16.463 11.4733C16.463 10.1972 16.1245 8.93798 15.6974 7.77337C16.4448 7.4191 17.3688 7.09618 18.1755 7.05901C18.7695 8.3543 19.0323 9.924 18.9466 11.3918C18.8771 12.5972 18.5729 13.7443 18.0436 14.8004C17.0031 17.4274 12.6232 19.7073 12.6232 19.7073C12.6232 19.7073 14.9005 17.1213 15.324 16.2935ZM18.8205 18.9089C17.3423 19.8912 15.3716 20.203 13.7597 19.7073C14.4789 19.5146 15.284 19.0395 15.9305 18.6191C17.1288 17.8387 18.1283 16.6968 18.8205 15.3168C19.3409 14.2787 19.7304 13.0358 19.8591 11.866C20.5873 11.9817 21.3064 12.2944 21.9578 12.6858C21.8671 15.183 20.7097 17.6534 18.8205 18.9089Z" stroke="white" stroke-width="0.981595"/>
</g>
<defs>
<clipPath id="clip0_3073_5900">
<rect width="23.1648" height="23.2965" fill="white" transform="translate(0.536499 0.351746)"/>
</clipPath>
</defs>
</svg>
