<svg width="24" height="24" viewBox="0 0 24 24" fill="none" xmlns="http://www.w3.org/2000/svg">
<path d="M11.4519 8.18335V13.9093M14.3149 11.0463L8.58893 11.0463" stroke="white" stroke-width="1.43149" stroke-linecap="round"/>
<path d="M1.19501 10.569C1.19501 10.9643 1.51546 11.2847 1.91075 11.2847C2.30605 11.2847 2.6265 10.9643 2.6265 10.569H1.19501ZM2.93523 15.4613C2.78396 15.096 2.36527 14.9226 2.00007 15.0739C1.63487 15.2252 1.46144 15.6438 1.61271 16.009L2.93523 15.4613ZM13.107 21.324L13.6244 20.45L12.3924 19.7208L11.8751 20.5949L13.107 21.324ZM9.28369 20.45L9.80104 21.324L11.0329 20.5949L10.5155 19.7208L9.28369 20.45ZM11.8751 20.5949C11.6912 20.9056 11.2169 20.9056 11.0329 20.5949L9.80104 21.324C10.5393 22.5713 12.3688 22.5713 13.107 21.324L11.8751 20.5949ZM10.0225 3.17295H12.8855V1.74146H10.0225V3.17295ZM20.2816 10.569V11.5233H21.7131V10.569H20.2816ZM7.44824 17.957C6.25014 17.9363 5.62236 17.8602 5.13027 17.6563L4.58246 18.9788C5.35067 19.297 6.22563 19.3676 7.42358 19.3882L7.44824 17.957ZM1.61271 16.009C2.16964 17.3536 3.2379 18.4219 4.58246 18.9788L5.13027 17.6563C4.13646 17.2446 3.34688 16.4551 2.93523 15.4613L1.61271 16.009ZM20.2816 11.5233C20.2816 12.6448 20.2812 13.45 20.2379 14.0854C20.1949 14.7144 20.1123 15.1246 19.9728 15.4613L21.2954 16.009C21.5191 15.4689 21.6181 14.8848 21.666 14.1828C21.7134 13.4874 21.7131 12.6252 21.7131 11.5233H20.2816ZM15.4845 19.3882C16.6824 19.3676 17.5574 19.297 18.3256 18.9788L17.7778 17.6563C17.2857 17.8602 16.6579 17.9363 15.4598 17.957L15.4845 19.3882ZM19.9728 15.4613C19.5612 16.4551 18.7716 17.2446 17.7778 17.6563L18.3256 18.9788C19.6701 18.4219 20.7384 17.3536 21.2954 16.009L19.9728 15.4613ZM12.8855 3.17295C14.4613 3.17295 15.593 3.1737 16.4756 3.25763C17.3477 3.34054 17.9025 3.49955 18.3449 3.77062L19.0929 2.55008C18.3877 2.118 17.5879 1.92544 16.6111 1.83256C15.645 1.7407 14.4336 1.74146 12.8855 1.74146V3.17295ZM21.7131 10.569C21.7131 9.02089 21.7138 7.80955 21.6219 6.8434C21.5291 5.8666 21.3365 5.06677 20.9045 4.36169L19.6839 5.10964C19.955 5.552 20.114 6.10688 20.1969 6.9789C20.2808 7.86156 20.2816 8.99317 20.2816 10.569H21.7131ZM18.3449 3.77062C18.8906 4.10506 19.3495 4.5639 19.6839 5.10964L20.9045 4.36169C20.452 3.62333 19.8312 3.00254 19.0929 2.55008L18.3449 3.77062ZM10.0225 1.74146C8.47444 1.74146 7.2631 1.7407 6.29695 1.83256C5.32015 1.92544 4.52032 2.118 3.81524 2.55008L4.56319 3.77062C5.00555 3.49955 5.56043 3.34054 6.43245 3.25763C7.31511 3.1737 8.44672 3.17295 10.0225 3.17295V1.74146ZM2.6265 10.569C2.6265 8.99317 2.62725 7.86156 2.71118 6.9789C2.79409 6.10688 2.9531 5.552 3.22418 5.10964L2.00363 4.36169C1.57156 5.06677 1.37899 5.8666 1.28612 6.8434C1.19425 7.80955 1.19501 9.02089 1.19501 10.569H2.6265ZM3.81524 2.55008C3.07689 3.00254 2.4561 3.62333 2.00363 4.36169L3.22418 5.10964C3.55861 4.5639 4.01745 4.10506 4.56319 3.77062L3.81524 2.55008ZM10.5155 19.7208C10.3218 19.3935 10.1518 19.1046 9.98637 18.8777C9.81211 18.6387 9.61237 18.4235 9.33529 18.2623L8.6156 19.4998C8.66084 19.526 8.72248 19.574 8.82949 19.7208C8.94532 19.8798 9.07618 20.0994 9.28369 20.45L10.5155 19.7208ZM7.42358 19.3882C7.84262 19.3955 8.10804 19.4008 8.31036 19.4232C8.49943 19.4442 8.57271 19.4748 8.6156 19.4998L9.33529 18.2623C9.0559 18.0998 8.76518 18.0333 8.46791 18.0003C8.18392 17.969 7.84071 17.9638 7.44824 17.957L7.42358 19.3882ZM13.6244 20.45C13.8318 20.0994 13.9627 19.8798 14.0785 19.7208C14.1855 19.574 14.2472 19.526 14.2924 19.4998L13.5727 18.2623C13.2957 18.4235 13.0959 18.6387 12.9217 18.8777C12.7563 19.1046 12.5863 19.3935 12.3924 19.7208L13.6244 20.45ZM15.4598 17.957C15.0673 17.9638 14.7241 17.969 14.4401 18.0003C14.1429 18.0333 13.8522 18.0998 13.5727 18.2623L14.2924 19.4998C14.3353 19.4748 14.4086 19.4442 14.5977 19.4232C14.8 19.4008 15.0654 19.3955 15.4845 19.3882L15.4598 17.957Z" fill="white"/>
</svg>
