<svg width="24" height="24" viewBox="0 0 24 24" fill="none" xmlns="http://www.w3.org/2000/svg">
<path d="M22 10.5427C22 14.5702 22 16.5841 20.5355 17.8352C19.0711 19.0864 16.714 19.0864 12 19.0864C7.28595 19.0864 4.92893 19.0864 3.46447 17.8352C2 16.5841 2 14.5702 2 10.5427C2 6.51518 2 4.50141 3.46447 3.25022C4.92893 1.99902 7.28595 1.99902 12 1.99902C16.714 1.99902 19.0711 1.99902 20.5355 3.25022C21.5093 4.08216 21.8356 5.25123 21.9449 7.12524" stroke="#7B4DFF" stroke-width="2" stroke-linecap="round"/>
<path d="M12 14.0491C13.8613 14.0491 15.3702 12.5403 15.3702 10.6789C15.3702 8.81764 13.8613 7.30875 12 7.30875C10.1387 7.30875 8.6298 8.81764 8.6298 10.6789C8.6298 12.5403 10.1387 14.0491 12 14.0491Z" stroke="#7B4DFF" stroke-width="2"/>
<path d="M12 19.0864L12 21.7656" stroke="#7B4DFF" stroke-width="2" stroke-linecap="round"/>
<path d="M16.5 22.0322H7.5" stroke="#7B4DFF" stroke-width="2" stroke-linecap="round"/>
</svg>
