<svg width="24" height="24" viewBox="0 0 24 24" fill="none" xmlns="http://www.w3.org/2000/svg">
<path d="M22 10.5427C22 14.5702 22 16.5841 20.5355 17.8352C19.0711 19.0864 16.714 19.0864 12 19.0864C7.28595 19.0864 4.92893 19.0864 3.46447 17.8352C2 16.5841 2 14.5702 2 10.5427C2 6.51518 2 4.50141 3.46447 3.25022C4.92893 1.99902 7.28595 1.99902 12 1.99902C16.714 1.99902 19.0711 1.99902 20.5355 3.25022C21.5093 4.08216 21.8356 5.25123 21.9449 7.12524" stroke="#7B4DFF" stroke-width="2" stroke-linecap="round"/>
<path d="M12 19.0864L12 21.7656" stroke="#7B4DFF" stroke-width="2" stroke-linecap="round"/>
<path d="M16.5 22.0322H7.5" stroke="#7B4DFF" stroke-width="2" stroke-linecap="round"/>
<path d="M11.999 13.9004C13.7783 13.9004 15.2207 12.458 15.2207 10.6787C15.2207 8.89944 13.7783 7.45706 11.999 7.45706C10.2198 7.45706 8.77737 8.89944 8.77737 10.6787C8.77737 12.458 10.2198 13.9004 11.999 13.9004Z" fill="#7B4DFF" stroke="#7B4DFF" stroke-width="2"/>
</svg>
