<svg width="24" height="24" viewBox="0 0 24 24" fill="none" xmlns="http://www.w3.org/2000/svg">
<path d="M18.6558 17.5947L21.5853 20.5227C21.722 20.6641 21.7975 20.8536 21.7958 21.0502C21.7941 21.2469 21.7153 21.435 21.5762 21.5741C21.4371 21.7131 21.249 21.792 21.0524 21.7937C20.8557 21.7954 20.6663 21.7198 20.5248 21.5832L17.5953 18.6537C15.681 20.2939 13.2057 21.1288 10.6891 20.9833C8.17236 20.8378 5.80983 19.7233 4.09721 17.8734C2.38458 16.0236 1.455 13.5824 1.50352 11.0619C1.55203 8.5415 2.57488 6.13783 4.35742 4.35528C6.13996 2.57274 8.54364 1.5499 11.0641 1.50138C13.5845 1.45286 16.0258 2.38245 17.8756 4.09507C19.7254 5.80769 20.84 8.17022 20.9855 10.6869C21.1309 13.2036 20.296 15.6803 18.6558 17.5947ZM11.2518 19.4997C13.4399 19.4997 15.5383 18.6305 17.0855 17.0833C18.6326 15.5362 19.5018 13.4377 19.5018 11.2497C19.5018 9.06166 18.6326 6.96324 17.0855 5.41606C15.5383 3.86889 13.4399 2.99969 11.2518 2.99969C9.0638 2.99969 6.96538 3.86889 5.4182 5.41606C3.87103 6.96324 3.00183 9.06166 3.00183 11.2497C3.00183 13.4377 3.87103 15.5362 5.4182 17.0833C6.96538 18.6305 9.0638 19.4997 11.2518 19.4997Z" fill="white"/>
</svg>
