<svg width="24" height="24" viewBox="0 0 24 24" fill="none" xmlns="http://www.w3.org/2000/svg">
<path d="M14.2198 21.63C13.0398 21.63 11.3698 20.8 10.0498 16.83L9.32976 14.67L7.16976 13.95C3.20976 12.63 2.37976 10.96 2.37976 9.78001C2.37976 8.61001 3.20976 6.93001 7.16976 5.60001L15.6598 2.77001C17.7798 2.06001 19.5498 2.27001 20.6398 3.35001C21.7298 4.43001 21.9398 6.21001 21.2298 8.33001L18.3998 16.82C17.0698 20.8 15.3998 21.63 14.2198 21.63ZM7.63976 7.03001C4.85976 7.96001 3.86976 9.06001 3.86976 9.78001C3.86976 10.5 4.85976 11.6 7.63976 12.52L10.1598 13.36C10.3798 13.43 10.5598 13.61 10.6298 13.83L11.4698 16.35C12.3898 19.13 13.4998 20.12 14.2198 20.12C14.9398 20.12 16.0398 19.13 16.9698 16.35L19.7998 7.86001C20.3098 6.32001 20.2198 5.06001 19.5698 4.41001C18.9198 3.76001 17.6598 3.68001 16.1298 4.19001L7.63976 7.03001Z" fill="white"/>
<path d="M10.1099 14.4001C9.91993 14.4001 9.72993 14.3301 9.57993 14.1801C9.28993 13.8901 9.28993 13.4101 9.57993 13.1201L13.1599 9.53006C13.4499 9.24006 13.9299 9.24006 14.2199 9.53006C14.5099 9.82006 14.5099 10.3001 14.2199 10.5901L10.6399 14.1801C10.4999 14.3301 10.2999 14.4001 10.1099 14.4001Z" fill="white"/>
</svg>
