<svg width="24" height="24" viewBox="0 0 24 24" fill="none" xmlns="http://www.w3.org/2000/svg">
<g opacity="0.8">
<path d="M11.9992 3.99977C11.734 3.99977 11.4797 4.10512 11.2922 4.29264C11.1046 4.48016 10.9993 4.7345 10.9993 4.9997C10.9993 6.69158 8.95343 7.53952 7.75651 6.34261C7.66427 6.2471 7.55393 6.17093 7.43194 6.11852C7.30994 6.06611 7.17873 6.03853 7.04596 6.03738C6.91319 6.03622 6.78152 6.06152 6.65863 6.1118C6.53574 6.16208 6.4241 6.23633 6.33021 6.33021C6.23633 6.4241 6.16208 6.53574 6.1118 6.65863C6.06152 6.78152 6.03622 6.91319 6.03738 7.04596C6.03853 7.17873 6.06611 7.30994 6.11852 7.43194C6.17093 7.55393 6.2471 7.66427 6.34261 7.75651C7.53952 8.95343 6.69258 10.9993 4.9997 10.9993C4.7345 10.9993 4.48016 11.1046 4.29264 11.2922C4.10512 11.4797 3.99977 11.734 3.99977 11.9992C3.99977 12.2644 4.10512 12.5188 4.29264 12.7063C4.48016 12.8938 4.7345 12.9991 4.9997 12.9991C6.69158 12.9991 7.53952 15.045 6.34261 16.2419C6.16046 16.4305 6.05967 16.6831 6.06195 16.9453C6.06423 17.2075 6.16939 17.4583 6.35479 17.6436C6.54018 17.829 6.79098 17.9342 7.05316 17.9365C7.31534 17.9388 7.56792 17.838 7.75651 17.6558C8.95343 16.4589 10.9993 17.3058 10.9993 18.9987C10.9993 19.2639 11.1046 19.5183 11.2922 19.7058C11.4797 19.8933 11.734 19.9987 11.9992 19.9987C12.2644 19.9987 12.5188 19.8933 12.7063 19.7058C12.8938 19.5183 12.9991 19.2639 12.9991 18.9987C12.9991 17.3068 15.045 16.4589 16.2419 17.6558C16.3342 17.7513 16.4445 17.8275 16.5665 17.8799C16.6885 17.9323 16.8197 17.9599 16.9525 17.9611C17.0852 17.9622 17.2169 17.9369 17.3398 17.8866C17.4627 17.8364 17.5743 17.7621 17.6682 17.6682C17.7621 17.5743 17.8364 17.4627 17.8866 17.3398C17.9369 17.2169 17.9622 17.0852 17.9611 16.9525C17.9599 16.8197 17.9323 16.6885 17.8799 16.5665C17.8275 16.4445 17.7513 16.3342 17.6558 16.2419C16.4589 15.045 17.3058 12.9991 18.9987 12.9991C19.2639 12.9991 19.5183 12.8938 19.7058 12.7063C19.8933 12.5188 19.9987 12.2644 19.9987 11.9992C19.9987 11.734 19.8933 11.4797 19.7058 11.2922C19.5183 11.1046 19.2639 10.9993 18.9987 10.9993C17.3068 10.9993 16.4589 8.95343 17.6558 7.75651C17.838 7.56792 17.9388 7.31534 17.9365 7.05316C17.9342 6.79098 17.829 6.54018 17.6436 6.35479C17.4583 6.16939 17.2075 6.06423 16.9453 6.06195C16.6831 6.05967 16.4305 6.16046 16.2419 6.34261C15.045 7.53952 12.9991 6.69258 12.9991 4.9997C12.9991 4.7345 12.8938 4.48016 12.7063 4.29264C12.5188 4.10512 12.2644 3.99977 11.9992 3.99977ZM9.00742 4.77671C9.06272 4.02104 9.40193 3.31428 9.95691 2.79843C10.5119 2.28258 11.2415 1.99585 11.9992 1.99585C12.7569 1.99585 13.4865 2.28258 14.0415 2.79843C14.5965 3.31428 14.9357 4.02104 14.991 4.77671C15.5648 4.28393 16.3035 4.02607 17.0593 4.05477C17.8151 4.08347 18.5322 4.39661 19.0669 4.93148C19.6017 5.46636 19.9146 6.18349 19.9431 6.93929C19.9717 7.69509 19.7136 8.43377 19.2207 9.00742C19.9764 9.06259 20.6832 9.40169 21.1992 9.95658C21.7151 10.5115 22.002 11.2411 22.0021 11.9988C22.0022 12.7564 21.7156 13.4861 21.1998 14.0412C20.6841 14.5963 19.9774 14.9356 19.2217 14.991C19.7145 15.5648 19.9724 16.3035 19.9437 17.0593C19.915 17.8151 19.6018 18.5322 19.067 19.0669C18.5321 19.6017 17.8149 19.9146 17.0591 19.9431C16.3033 19.9717 15.5647 19.7136 14.991 19.2207C14.9357 19.9764 14.5965 20.6832 14.0415 21.199C13.4865 21.7149 12.7569 22.0016 11.9992 22.0016C11.2415 22.0016 10.5119 21.7149 9.95691 21.199C9.40193 20.6832 9.06272 19.9764 9.00742 19.2207C8.43377 19.7136 7.69509 19.9717 6.93929 19.9431C6.18349 19.9146 5.46636 19.6017 4.93148 19.0669C4.39661 18.5322 4.08347 17.8151 4.05477 17.0593C4.02607 16.3035 4.28393 15.5648 4.77671 14.991C4.02104 14.9357 3.31428 14.5965 2.79843 14.0415C2.28258 13.4865 1.99585 12.7569 1.99585 11.9992C1.99585 11.2415 2.28258 10.5119 2.79843 9.95691C3.31428 9.40193 4.02104 9.06272 4.77671 9.00742C4.28243 8.43387 4.02331 7.69462 4.05136 6.93798C4.0794 6.18135 4.39253 5.46331 4.92792 4.92792C5.46331 4.39253 6.18135 4.0794 6.93798 4.05136C7.69462 4.02331 8.43387 4.28243 9.00742 4.77671Z" fill="#24E5FF"/>
</g>
</svg>
