<svg width="25" height="24" viewBox="0 0 25 24" fill="none" xmlns="http://www.w3.org/2000/svg">
<g opacity="0.7">
<path d="M13.3064 9.50078C13.2527 9.5503 13.1994 9.59686 13.1456 9.64723C12.5695 10.1852 11.9935 10.735 11.4204 11.3081C10.8469 11.8816 10.2962 12.4585 9.757 13.0358C9.70917 13.0887 9.66262 13.1404 9.61436 13.1929C6.65057 16.3904 4.21972 19.6284 2.43633 22.6655C2.30101 22.896 2.34061 23.188 2.52959 23.377C2.8054 23.6528 3.27402 23.5944 3.52213 23.2934C4.63115 21.9481 6.82335 20.4166 8.4449 20.172C8.5975 20.1493 8.75319 20.1506 8.90361 20.1849C11.9896 20.887 15.3534 20.0483 17.757 17.6447C20.2569 15.1448 21.0672 11.6066 20.2085 8.42229C20.2057 8.41198 20.2051 8.40122 20.206 8.39058C20.4966 6.46263 22.4504 4.407 23.4137 3.49594C23.6949 3.22994 23.7126 2.77771 23.4389 2.50399C23.2283 2.29341 22.9027 2.2496 22.6464 2.4013C19.6476 4.1765 16.4582 6.57995 13.3064 9.50078Z" fill="url(#paint0_linear_3043_3825)"/>
<path d="M17.3218 3.74712C17.3143 3.74046 17.3067 3.7338 17.2992 3.72716C13.5532 0.437565 7.84399 0.580098 4.26819 4.15589C0.660529 7.76356 0.547601 13.5421 3.92826 17.2857C7.62093 12.0727 12.1507 7.49458 17.3218 3.74712Z" fill="url(#paint1_linear_3043_3825)"/>
</g>
<defs>
<linearGradient id="paint0_linear_3043_3825" x1="20.4268" y1="17.0791" x2="3.21754" y2="5.193" gradientUnits="userSpaceOnUse">
<stop stop-color="#25F2FF"/>
<stop offset="1" stop-color="#FB34FF"/>
</linearGradient>
<linearGradient id="paint1_linear_3043_3825" x1="20.4268" y1="17.0791" x2="3.21754" y2="5.193" gradientUnits="userSpaceOnUse">
<stop stop-color="#25F2FF"/>
<stop offset="1" stop-color="#FB34FF"/>
</linearGradient>
</defs>
</svg>
