<svg width="24" height="24" viewBox="0 0 24 24" fill="none" xmlns="http://www.w3.org/2000/svg">
<path d="M12.0038 7.85842C11.3941 7.24853 10.9768 6.18349 10.7698 5.21445C10.5623 6.18369 10.1455 7.24895 9.5356 7.85884C8.92593 8.46832 7.86057 8.88561 6.89172 9.09312C7.86097 9.30022 8.92612 9.71727 9.5358 10.3272C10.1455 10.9369 10.5628 12.0021 10.7702 12.9712C10.9773 12.0019 11.3944 10.9367 12.004 10.3268C12.6137 9.71709 13.679 9.29999 14.6479 9.09248C13.6789 8.88539 12.6137 8.46812 12.0038 7.85842Z" fill="#24E5FF"/>
<path d="M15.964 12.7417C15.6001 12.3776 15.3504 11.741 15.2267 11.1621C15.1027 11.741 14.8539 12.3775 14.4895 12.7419C14.1252 13.1058 13.4887 13.3553 12.91 13.4792C13.4889 13.6031 14.1252 13.8522 14.4895 14.2165C14.8539 14.5807 15.1032 15.2172 15.2271 15.7961C15.3508 15.217 15.6001 14.5807 15.9642 14.2163C16.3283 13.8522 16.9649 13.6029 17.5435 13.4788C16.9649 13.3551 16.3283 13.1058 15.964 12.7417Z" fill="#24E5FF"/>
<path d="M9.5057 13.9874C9.40165 14.4734 9.1927 15.008 8.8869 15.3138C8.58115 15.6193 8.04677 15.8287 7.56088 15.9328C8.04677 16.037 8.58115 16.2458 8.8869 16.5518C9.1927 16.8575 9.40207 17.3917 9.50612 17.8779C9.61007 17.3917 9.81912 16.8575 10.125 16.5516C10.4306 16.2458 10.9651 16.0366 11.4508 15.9324C10.9651 15.8285 10.4306 15.6193 10.1248 15.3136C9.81912 15.008 9.60965 14.4734 9.5057 13.9874Z" fill="#24E5FF"/>
<path d="M21.5536 11.5461C21.5536 16.0829 21.5536 18.3514 20.1442 19.7607C18.7348 21.1702 16.4664 21.1702 11.9296 21.1702C7.39278 21.1702 5.12438 21.1702 3.71498 19.7607C2.30557 18.3514 2.30557 16.0829 2.30557 11.5461C2.30557 7.00933 2.30557 4.74093 3.71498 3.33153C5.12438 1.92212 7.39278 1.92212 11.9296 1.92212C16.4664 1.92212 18.7348 1.92212 20.1442 3.33153C21.0814 4.26866 21.3954 5.58555 21.5006 7.69653" stroke="#24E5FF" stroke-width="1.9248" stroke-linecap="round"/>
</svg>
