<svg width="24" height="24" viewBox="0 0 24 24" fill="none" xmlns="http://www.w3.org/2000/svg">
<path d="M11.539 2.88721C7.44763 2.88721 5.40195 2.88721 4.13094 4.15567C3.16415 5.12052 2.93274 6.53266 2.87735 8.95034M20.2006 8.95034C20.1452 6.53266 19.9138 5.12052 18.947 4.15567C18.1592 3.36952 17.074 3.0706 15.3886 2.95694M20.2006 14.1473C20.1452 16.565 19.9138 17.9771 18.947 18.942C17.676 20.2104 15.6303 20.2104 11.539 20.2104C7.44763 20.2104 5.40195 20.2104 4.13094 18.942C3.16416 17.9771 2.93275 16.565 2.87735 14.1473" stroke="#7B4DFF" stroke-width="1.9248" stroke-linecap="round"/>
<path d="M7.68936 7.69922H15.3886" stroke="#7B4DFF" stroke-width="1.9248" stroke-linecap="round"/>
<path d="M11.539 15.3984V7.69922" stroke="#7B4DFF" stroke-width="1.9248" stroke-linecap="round"/>
<path d="M21.163 11.5488H19.2382" stroke="#7B4DFF" stroke-width="1.9248" stroke-linecap="round"/>
<path d="M3.83975 11.5488H1.91495" stroke="#7B4DFF" stroke-width="1.9248" stroke-linecap="round"/>
</svg>
