<svg width="24" height="24" viewBox="0 0 24 24" fill="none" xmlns="http://www.w3.org/2000/svg">
<path d="M11.3694 7.85504L8.86218 16.1417" stroke="white" stroke-width="1.4" stroke-linecap="round" stroke-linejoin="round"/>
<path d="M15.0776 7.85504L12.5703 16.1417" stroke="white" stroke-width="1.4" stroke-linecap="round" stroke-linejoin="round"/>
<path d="M16.8013 10.1014H7.60803" stroke="white" stroke-width="1.4" stroke-linecap="round" stroke-linejoin="round"/>
<path d="M15.9641 13.8271H6.77081" stroke="white" stroke-width="1.4" stroke-linecap="round" stroke-linejoin="round"/>
<path d="M21.5785 11.9989C21.5785 16.5748 21.5785 18.8628 20.1447 20.2842C18.7111 21.7058 16.4035 21.7058 11.7886 21.7058C7.17355 21.7058 4.86605 21.7058 3.43236 20.2842C1.99866 18.8628 1.99866 16.5748 1.99866 11.9989C1.99866 7.42306 1.99866 5.13513 3.43236 3.7136C4.86605 2.29205 7.17355 2.29205 11.7886 2.29205C16.4035 2.29205 18.7111 2.29205 20.1447 3.7136C21.0981 4.6588 21.4175 5.98703 21.5245 8.11618" stroke="white" stroke-width="1.4" stroke-linecap="round"/>
</svg>
