<svg width="24" height="24" viewBox="0 0 24 24" fill="none" xmlns="http://www.w3.org/2000/svg">
<path fill-rule="evenodd" clip-rule="evenodd" d="M12.7501 2.68542C12.7501 2.27121 12.4143 1.93542 12.0001 1.93542C11.5858 1.93542 11.2501 2.27121 11.2501 2.68542V7.21772C11.4945 7.1797 11.7449 7.15997 12 7.15997C12.2551 7.15997 12.5056 7.17971 12.7501 7.21774V2.68542ZM12.7501 16.7823C12.5056 16.8203 12.2551 16.84 12 16.84C11.7449 16.84 11.4945 16.8203 11.2501 16.7823V21.4059C11.2501 21.8201 11.5858 22.1559 12.0001 22.1559C12.4143 22.1559 12.7501 21.8201 12.7501 21.4059V16.7823ZM8.73868 8.4237V5.74978C8.73868 5.33557 8.40289 4.99978 7.98868 4.99978C7.57446 4.99978 7.23868 5.33557 7.23868 5.74978V11.126C7.43242 10.0637 7.97295 9.12238 8.73868 8.4237ZM7.23868 12.874C7.43242 13.9363 7.97295 14.8776 8.73868 15.5763V18.3409C8.73868 18.7551 8.40289 19.0909 7.98868 19.0909C7.57446 19.0909 7.23868 18.7551 7.23868 18.3409V12.874ZM15.2613 15.5763C16.0271 14.8776 16.5676 13.9363 16.7613 12.8739V18.3409C16.7613 18.7551 16.4256 19.0909 16.0113 19.0909C15.5971 19.0909 15.2613 18.7551 15.2613 18.3409V15.5763ZM16.7613 11.1261C16.5676 10.0637 16.0271 9.12241 15.2613 8.42371V5.74978C15.2613 5.33557 15.5971 4.99978 16.0113 4.99978C16.4256 4.99978 16.7613 5.33557 16.7613 5.74978V11.1261ZM4.72736 8.43728C4.72736 8.02307 4.39157 7.68728 3.97736 7.68728C3.56314 7.68728 3.22736 8.02307 3.22736 8.43728V15.6545C3.22736 16.0687 3.56314 16.4045 3.97736 16.4045C4.39157 16.4045 4.72736 16.0687 4.72736 15.6545V8.43728ZM20.7727 8.43728C20.7727 8.02307 20.4369 7.68728 20.0227 7.68728C19.6084 7.68728 19.2727 8.02307 19.2727 8.43728V15.6545C19.2727 16.0687 19.6084 16.4045 20.0227 16.4045C20.4369 16.4045 20.7727 16.0687 20.7727 15.6545V8.43728Z" fill="white"/>
</svg>
