<svg width="24" height="24" viewBox="0 0 24 24" fill="none" xmlns="http://www.w3.org/2000/svg">
<path fill-rule="evenodd" clip-rule="evenodd" d="M12 2C9.98334 2 8.58325 3.51273 7.61009 4.66836C7.43016 4.88203 7.26454 5.08441 7.10742 5.27641C6.79079 5.66333 6.50865 6.00811 6.21336 6.31816C5.76987 6.78383 5.46694 6.97749 5.25746 7.02986C4.15747 7.30486 3.31284 7.72481 2.7506 8.36116C2.16553 9.02336 2 9.78886 2 10.5V13.5C2 14.2112 2.16553 14.9767 2.75061 15.6389C3.31285 16.2752 4.15747 16.6951 5.25746 16.9701C5.46694 17.0225 5.76987 17.2162 6.21336 17.6818C6.50865 17.9919 6.79079 18.3367 7.10742 18.7236C7.26455 18.9156 7.43016 19.118 7.61009 19.3316C8.58325 20.4873 9.98334 22 12 22C12.5392 22 12.9116 21.689 13.1212 21.4364C13.3309 21.1835 13.4794 20.8748 13.5907 20.5826C13.8168 19.989 13.9857 19.2017 14.1142 18.334C14.3739 16.5809 14.5 14.278 14.5 12C14.5 9.722 14.3739 7.4191 14.1142 5.66595C13.9857 4.79833 13.8168 4.01097 13.5907 3.41744C13.4794 3.12521 13.3309 2.81646 13.1212 2.56365C12.9116 2.31098 12.5392 2 12 2ZM5.74254 8.97014C6.53306 8.77251 7.16763 8.21617 7.66164 7.69747C8.00954 7.33217 8.37193 6.88972 8.71526 6.47054C8.86111 6.29247 9.00352 6.1186 9.13991 5.95664C10.0538 4.87135 10.8276 4.16797 11.68 4.0264C11.6933 4.05711 11.7073 4.09137 11.7218 4.12943C11.8707 4.52028 12.0143 5.13917 12.1358 5.95905C12.3761 7.5809 12.5 9.778 12.5 12C12.5 14.222 12.3761 16.4191 12.1358 18.041C12.0143 18.8608 11.8707 19.4797 11.7218 19.8706C11.7073 19.9086 11.6933 19.9429 11.68 19.9736C10.8276 19.832 10.0538 19.1287 9.13991 18.0434C9.00355 17.8814 8.86118 17.7076 8.71537 17.5296C8.37204 17.1104 8.00953 16.6678 7.66164 16.3025C7.16763 15.7838 6.53306 15.2275 5.74254 15.0299C4.84253 14.8049 4.43715 14.5271 4.24939 14.3146C4.08447 14.1279 4 13.8934 4 13.5V10.5C4 10.1066 4.08447 9.87207 4.2494 9.68541C4.43716 9.4729 4.84253 9.19514 5.74254 8.97014Z" fill="#7B4DFF"/>
<path d="M20.152 5.29289C19.7615 4.90237 19.1284 4.90237 18.7378 5.29289C18.3473 5.68342 18.3473 6.31658 18.7378 6.70711C19.9557 7.92494 20.4449 10.0918 20.4449 12C20.4449 13.9082 19.9557 16.0751 18.7378 17.2929C18.3473 17.6834 18.3473 18.3166 18.7378 18.7071C19.1284 19.0976 19.7615 19.0976 20.152 18.7071C21.9342 16.9249 22.4449 14.0918 22.4449 12C22.4449 9.9082 21.9342 7.07506 20.152 5.29289Z" fill="#7B4DFF"/>
<path d="M17.152 8.29287C16.7615 7.90235 16.1284 7.90235 15.7378 8.29287C15.3473 8.6834 15.3473 9.31656 15.7378 9.70709C16.0171 9.98635 16.4449 10.7143 16.4449 12C16.4449 13.2857 16.0171 14.0136 15.7378 14.2929C15.3473 14.6834 15.3473 15.3166 15.7378 15.7071C16.1284 16.0976 16.7615 16.0976 17.152 15.7071C17.8728 14.9864 18.4449 13.7143 18.4449 12C18.4449 10.2857 17.8728 9.01361 17.152 8.29287Z" fill="#7B4DFF"/>
</svg>
