<svg width="24" height="24" viewBox="0 0 24 24" fill="none" xmlns="http://www.w3.org/2000/svg">
<g opacity="0.8">
<path d="M13.0185 8.45666C12.3838 7.82172 11.9493 6.71294 11.7337 5.7041C11.5178 6.71315 11.0838 7.82216 10.4489 8.4571C9.81419 9.09161 8.70508 9.52604 7.69644 9.74207C8.70549 9.95767 9.81439 10.3918 10.4491 11.0268C11.0838 11.6615 11.5183 12.7705 11.7342 13.7794C11.9498 12.7703 12.3841 11.6613 13.0187 11.0264C13.6534 10.3917 14.7625 9.95744 15.7712 9.74141C14.7623 9.52581 13.6534 9.0914 13.0185 8.45666Z" fill="#24E5FF"/>
<path d="M16.0619 13.0117C15.683 12.6327 15.423 11.9699 15.2942 11.3673C15.1652 11.9699 14.9061 12.6326 14.5268 13.0119C14.1476 13.3908 13.4849 13.6505 12.8824 13.7795C13.4851 13.9085 14.1476 14.1679 14.5268 14.5471C14.9061 14.9262 15.1657 15.5889 15.2947 16.1916C15.4234 15.5887 15.683 14.9262 16.062 14.5469C16.4411 14.1679 17.1039 13.9083 17.7063 13.7791C17.1039 13.6503 16.4412 13.3908 16.0619 13.0117Z" fill="#24E5FF"/>
<path d="M10.4178 13.3432C10.3095 13.8491 10.092 14.4057 9.77361 14.724C9.4553 15.0421 8.89897 15.2601 8.39313 15.3685C8.89897 15.477 9.4553 15.6943 9.77361 16.0129C10.092 16.3312 10.3099 16.8873 10.4183 17.3935C10.5265 16.8873 10.7441 16.3312 11.0626 16.0127C11.3807 15.6944 11.9371 15.4766 12.4428 15.3681C11.9371 15.2599 11.3807 15.0422 11.0624 14.7238C10.7441 14.4057 10.526 13.8492 10.4178 13.3432Z" fill="#24E5FF"/>
<path d="M2.40323 12.6431C2.40323 9.69406 2.40323 8.21947 3.12409 7.16024C3.43616 6.7017 3.83716 6.30798 4.3042 6.00159C4.99743 5.54681 5.86531 5.38426 7.19407 5.32616C7.82815 5.32616 8.37409 4.85441 8.49844 4.24393C8.68497 3.32824 9.50388 2.6691 10.455 2.6691H13.5995C14.5506 2.6691 15.3695 3.32824 15.5561 4.24393C15.6804 4.85441 16.2263 5.32616 16.8604 5.32616C18.1892 5.38426 19.057 5.54681 19.7503 6.00159C20.2173 6.30798 20.6183 6.7017 20.9304 7.16024C21.6513 8.21947 21.6513 9.69406 21.6513 12.6431C21.6513 15.5921 21.6513 17.0667 20.9304 18.126C20.6183 18.5844 20.2173 18.9782 19.7503 19.2846C18.6715 19.9923 17.1697 19.9923 14.1659 19.9923H9.88858C6.88489 19.9923 5.38306 19.9923 4.3042 19.2846C3.83716 18.9782 3.43616 18.5844 3.12409 18.126C2.92048 17.8267 2.77439 17.4944 2.66955 17.1051" stroke="#24E5FF" stroke-width="1.9248" stroke-linecap="round"/>
</g>
</svg>
