<svg width="24" height="24" viewBox="0 0 24 24" fill="none" xmlns="http://www.w3.org/2000/svg">
<g opacity="0.8">
<path d="M21.6756 6.68826C21.56 6.26169 21.3347 5.87281 21.0222 5.56029C20.7096 5.24777 20.3208 5.02249 19.8942 4.90686C18.312 4.48965 11.9861 4.48965 11.9861 4.48965C11.9861 4.48965 5.66026 4.48965 4.07807 4.90686C3.21191 5.13928 2.53053 5.8221 2.29666 6.68826C1.88091 8.26901 1.88091 11.5489 1.88091 11.5489C1.88091 11.5489 1.88091 14.8446 2.29666 16.4095C2.53053 17.2757 3.21335 17.9585 4.07807 18.1909C5.66026 18.6081 11.9861 18.6081 11.9861 18.6081C11.9861 18.6081 18.312 18.6081 19.8942 18.1909C20.3208 18.0753 20.7096 17.85 21.0222 17.5375C21.3347 17.2249 21.56 16.8361 21.6756 16.4095C22.0914 14.8287 22.0914 11.5489 22.0914 11.5489C22.0914 11.5489 22.0914 8.26901 21.6756 6.68826Z" fill="#FF0000"/>
<path d="M9.95607 14.5942L15.2166 11.5655L9.95607 8.51947V14.5942Z" fill="white"/>
</g>
</svg>
